# WaveFront *.obj file (generated by Autodesk ATF)

mtllib fbbbbca9-2fe2-445c-b3f0-902b2e8cee19.mtl

g Body1

v 651.000000 72.400000 7.000000
v 651.000000 -76.000000 7.000000
v 1049.000000 -76.000000 7.000000
v 1049.000000 72.400000 7.000000
v 1049.000000 -76.000000 8.000000
v 1049.000000 72.400000 8.000000
v 651.000000 -76.000000 8.000000
v 651.000000 72.400000 8.000000
v 1500.000000 -76.000000 8.000000
v 1500.000000 72.400000 8.000000
v 200.000000 72.400000 8.000000
v 200.000000 -76.000000 8.000000
v 1500.000000 -76.000000 9.000000
v 1500.000000 72.400000 9.000000
v 200.000000 72.400000 9.000000
v 200.000000 -76.000000 9.000000
v 100.000000 72.400000 9.000000
v 100.000000 -76.000000 9.000000
v 1600.000000 -76.000000 9.000000
v 1600.000000 72.400000 9.000000
v 100.000000 -76.000000 10.000000
v 1600.000000 -76.000000 10.000000
v 100.000000 72.400000 10.000000
v 1600.000000 72.400000 10.000000
v 0.000000 90.000000 10.000000
v 0.000000 -90.000000 10.000000
v 1700.000000 -90.000000 10.000000
v 1700.000000 90.000000 10.000000
v 0.000000 90.000000 -2.000000
v 1700.000000 90.000000 -2.000000
v 0.000000 -90.000000 -2.000000
v 1700.000000 -90.000000 -2.000000
vt -14.840000 0.000000 0.000000
vt -0.000000 0.000000 0.000000
vt -14.840000 39.800000 0.000000
vt -0.000000 39.800000 0.000000
vt -0.050000 -7.420000 0.000000
vt 0.050000 -7.420000 0.000000
vt -0.050000 7.420000 0.000000
vt 0.050000 7.420000 0.000000
vt -0.050000 -7.420000 0.000000
vt 0.050000 -7.420000 0.000000
vt -0.050000 7.420000 0.000000
vt 0.050000 7.420000 0.000000
vt -14.840000 84.900000 0.000000
vt -0.000000 84.900000 0.000000
vt -14.840000 130.000000 0.000000
vt -0.000000 130.000000 0.000000
vt -0.000000 45.100000 0.000000
vt -14.840000 45.100000 0.000000
vt -0.000000 0.000000 0.000000
vt -14.840000 0.000000 0.000000
vt -0.050000 -7.420000 0.000000
vt 0.050000 -7.420000 0.000000
vt -0.050000 7.420000 0.000000
vt 0.050000 7.420000 0.000000
vt -7.420000 -0.050000 0.000000
vt 7.420000 -0.050000 0.000000
vt -7.420000 0.050000 0.000000
vt 7.420000 0.050000 0.000000
vt -0.000000 10.000000 0.000000
vt -14.840000 10.000000 0.000000
vt -0.000000 0.000000 0.000000
vt -14.840000 0.000000 0.000000
vt -14.840000 140.000000 0.000000
vt -0.000000 140.000000 0.000000
vt -14.840000 150.000000 0.000000
vt -0.000000 150.000000 0.000000
vt -0.100000 0.000000 0.000000
vt -0.000000 0.000000 0.000000
vt -0.100000 10.000000 0.000000
vt -0.100000 140.000000 0.000000
vt -0.200000 55.100000 0.000000
vt -0.200000 94.900000 0.000000
vt -0.300000 94.900000 0.000000
vt -0.000000 150.000000 0.000000
vt -0.100000 150.000000 0.000000
vt -0.200000 140.000000 0.000000
vt -0.300000 55.100000 0.000000
vt -0.200000 10.000000 0.000000
vt -0.000000 0.000000 0.000000
vt -0.000000 10.000000 0.000000
vt -0.100000 0.000000 0.000000
vt -0.000000 140.000000 0.000000
vt -0.100000 150.000000 0.000000
vt -0.000000 150.000000 0.000000
vt 0.100000 10.000000 0.000000
vt 0.100000 55.100000 0.000000
vt 0.100000 94.900000 0.000000
vt 0.200000 55.100000 0.000000
vt 0.200000 94.900000 0.000000
vt 0.100000 140.000000 0.000000
vt 0.050000 7.420000 0.000000
vt -0.050000 7.420000 0.000000
vt 0.050000 -7.420000 0.000000
vt -0.050000 -7.420000 0.000000
vt 7.420000 0.050000 0.000000
vt -7.420000 0.050000 0.000000
vt 7.420000 -0.050000 0.000000
vt -7.420000 -0.050000 0.000000
vt 1.760000 160.000000 0.000000
vt 0.000000 0.000000 0.000000
vt 1.760000 10.000000 0.000000
vt 18.000000 0.000000 0.000000
vt 16.600000 10.000000 0.000000
vt 16.600000 160.000000 0.000000
vt 18.000000 170.000000 0.000000
vt 0.000000 170.000000 0.000000
vt 0.000000 0.000000 0.000000
vt 1.200000 0.000000 0.000000
vt 0.000000 170.000000 0.000000
vt 1.200000 170.000000 0.000000
vt 0.000000 0.000000 0.000000
vt 18.000000 0.000000 0.000000
vt 0.000000 170.000000 0.000000
vt 18.000000 170.000000 0.000000
vt 0.000000 0.000000 0.000000
vt 1.200000 0.000000 0.000000
vt 0.000000 170.000000 0.000000
vt 1.200000 170.000000 0.000000
vt -0.600000 -9.000000 0.000000
vt 0.600000 -9.000000 0.000000
vt -0.600000 9.000000 0.000000
vt 0.600000 9.000000 0.000000
vt 9.000000 0.600000 0.000000
vt -9.000000 0.600000 0.000000
vt 9.000000 -0.600000 0.000000
vt -9.000000 -0.600000 0.000000
vn 0.000000 0.000000 0.100000
vn 0.000000 0.000000 0.100000
vn 0.000000 0.000000 0.100000
vn 0.000000 0.000000 0.100000
vn -0.100000 0.000000 0.000000
vn -0.100000 0.000000 0.000000
vn -0.100000 0.000000 0.000000
vn -0.100000 0.000000 0.000000
vn 0.100000 0.000000 0.000000
vn 0.100000 0.000000 0.000000
vn 0.100000 0.000000 0.000000
vn 0.100000 0.000000 0.000000
vn 0.000000 0.000000 0.100000
vn 0.000000 0.000000 0.100000
vn 0.000000 0.000000 0.100000
vn 0.000000 0.000000 0.100000
vn 0.000000 0.000000 0.100000
vn 0.000000 0.000000 0.100000
vn 0.000000 0.000000 0.100000
vn 0.000000 0.000000 0.100000
vn -0.100000 0.000000 0.000000
vn -0.100000 0.000000 0.000000
vn -0.100000 0.000000 0.000000
vn -0.100000 0.000000 0.000000
vn 0.100000 0.000000 0.000000
vn 0.100000 0.000000 0.000000
vn 0.100000 0.000000 0.000000
vn 0.100000 0.000000 0.000000
vn 0.000000 0.000000 0.100000
vn 0.000000 0.000000 0.100000
vn 0.000000 0.000000 0.100000
vn 0.000000 0.000000 0.100000
vn 0.000000 0.000000 0.100000
vn 0.000000 0.000000 0.100000
vn 0.000000 0.000000 0.100000
vn 0.000000 0.000000 0.100000
vn -0.000000 0.100000 -0.000000
vn -0.000000 0.100000 -0.000000
vn -0.000000 0.100000 -0.000000
vn -0.000000 0.100000 -0.000000
vn -0.000000 0.100000 -0.000000
vn -0.000000 0.100000 -0.000000
vn -0.000000 0.100000 -0.000000
vn -0.000000 0.100000 -0.000000
vn -0.000000 0.100000 -0.000000
vn -0.000000 0.100000 -0.000000
vn -0.000000 0.100000 -0.000000
vn -0.000000 0.100000 -0.000000
vn 0.000000 -0.100000 0.000000
vn 0.000000 -0.100000 0.000000
vn 0.000000 -0.100000 0.000000
vn 0.000000 -0.100000 0.000000
vn 0.000000 -0.100000 0.000000
vn 0.000000 -0.100000 0.000000
vn 0.000000 -0.100000 0.000000
vn 0.000000 -0.100000 0.000000
vn 0.000000 -0.100000 0.000000
vn 0.000000 -0.100000 0.000000
vn 0.000000 -0.100000 0.000000
vn 0.000000 -0.100000 0.000000
vn -0.100000 0.000000 0.000000
vn -0.100000 0.000000 0.000000
vn -0.100000 0.000000 0.000000
vn -0.100000 0.000000 0.000000
vn 0.100000 0.000000 0.000000
vn 0.100000 0.000000 0.000000
vn 0.100000 0.000000 0.000000
vn 0.100000 0.000000 0.000000
vn 0.000000 0.000000 0.100000
vn 0.000000 0.000000 0.100000
vn 0.000000 0.000000 0.100000
vn 0.000000 0.000000 0.100000
vn 0.000000 0.000000 0.100000
vn 0.000000 0.000000 0.100000
vn 0.000000 0.000000 0.100000
vn 0.000000 0.000000 0.100000
vn 0.000000 0.100000 0.000000
vn 0.000000 0.100000 0.000000
vn 0.000000 0.100000 0.000000
vn 0.000000 0.100000 0.000000
vn 0.000000 0.000000 -0.100000
vn 0.000000 0.000000 -0.100000
vn 0.000000 0.000000 -0.100000
vn 0.000000 0.000000 -0.100000
vn 0.000000 -0.100000 0.000000
vn 0.000000 -0.100000 0.000000
vn 0.000000 -0.100000 0.000000
vn 0.000000 -0.100000 0.000000
vn 0.100000 0.000000 0.000000
vn 0.100000 0.000000 0.000000
vn 0.100000 0.000000 0.000000
vn 0.100000 0.000000 0.000000
vn -0.100000 0.000000 0.000000
vn -0.100000 0.000000 0.000000
vn -0.100000 0.000000 0.000000
vn -0.100000 0.000000 0.000000
usemtl Aluminum_-_Bead_Blasted
f 1/1/1 2/2/2 4/3/3
f 4/3/3 2/2/2 3/4/4
f 3/5/5 5/6/6 4/7/7
f 4/7/7 5/6/6 6/8/8
f 7/9/9 2/10/10 8/11/11
f 8/11/11 2/10/10 1/12/12
f 6/13/13 5/14/14 10/15/15
f 10/15/15 5/14/14 9/16/16
f 7/17/17 8/18/18 12/19/19
f 12/19/19 8/18/18 11/20/20
f 9/21/21 13/22/22 10/23/23
f 10/23/23 13/22/22 14/24/24
f 12/25/25 11/26/26 16/27/27
f 16/27/27 11/26/26 15/28/28
f 16/29/29 15/30/30 18/31/31
f 18/31/31 15/30/30 17/32/32
f 14/33/33 13/34/34 20/35/35
f 20/35/35 13/34/34 19/36/36
f 18/37/37 21/38/38 16/39/39
f 16/39/39 21/38/38 13/40/40
f 16/39/39 13/40/40 7/41/41
f 7/41/41 13/40/40 5/42/42
f 7/41/41 5/42/42 3/43/43
f 21/38/38 22/44/44 13/40/40
f 13/40/40 22/44/44 19/45/45
f 13/40/40 9/46/46 5/42/42
f 3/43/43 2/47/47 7/41/41
f 7/41/41 12/48/48 16/39/39
f 17/49/49 15/50/50 23/51/51
f 23/51/51 15/50/50 14/52/52
f 23/51/51 14/52/52 24/53/53
f 24/53/53 14/52/52 20/54/54
f 11/55/55 8/56/56 15/50/50
f 15/50/50 8/56/56 14/52/52
f 14/52/52 8/56/56 6/57/57
f 6/57/57 8/56/56 1/58/58
f 6/57/57 1/58/58 4/59/59
f 6/57/57 10/60/60 14/52/52
f 24/61/61 20/62/62 22/63/63
f 22/63/63 20/62/62 19/64/64
f 23/65/65 21/66/66 17/67/67
f 17/67/67 21/66/66 18/68/68
f 24/69/69 25/70/70 23/71/71
f 23/71/71 25/70/70 26/72/72
f 23/71/71 26/72/72 21/73/73
f 21/73/73 26/72/72 22/74/74
f 22/74/74 26/72/72 27/75/75
f 22/74/74 27/75/75 24/69/69
f 24/69/69 27/75/75 28/76/76
f 24/69/69 28/76/76 25/70/70
f 29/77/77 25/78/78 30/79/79
f 30/79/79 25/78/78 28/80/80
f 31/81/81 29/82/82 32/83/83
f 32/83/83 29/82/82 30/84/84
f 26/85/85 31/86/86 27/87/87
f 27/87/87 31/86/86 32/88/88
f 27/89/89 32/90/90 28/91/91
f 28/91/91 32/90/90 30/92/92
f 26/93/93 25/94/94 31/95/95
f 31/95/95 25/94/94 29/96/96
# 32 vertices
# 96 texture params
# 96 normals
# 60 facets

# 1 groups
